<?xml version="1.0" standalone="no"?>
<!DOCTYPE svg PUBLIC "-//W3C//DTD SVG 20010904//EN"
 "http://www.w3.org/TR/2001/REC-SVG-20010904/DTD/svg10.dtd">
<svg version="1.0" xmlns="http://www.w3.org/2000/svg"
 width="2400.000000pt" height="2400.000000pt" viewBox="0 0 2400.000000 2400.000000"
 preserveAspectRatio="xMidYMid meet">
<g transform="translate(0.000000,2400.000000) scale(0.100000,-0.100000)"
fill="#000000" stroke="none">
<path d="M10085 19245 c-14 -13 -25 -31 -25 -39 0 -36 -35 -39 -322 -32 -242
7 -287 5 -355 -10 -191 -42 -361 -167 -440 -325 -81 -161 -78 -137 -78 -663
l0 -470 -48 -17 c-80 -29 -77 -21 -77 -209 0 -195 5 -209 81 -219 l44 -6 -3
-430 c-3 -275 0 -453 7 -495 18 -107 50 -210 81 -260 6 -8 19 -31 30 -51 24
-45 128 -153 193 -199 26 -19 120 -93 210 -164 89 -70 178 -138 197 -151 19
-12 58 -42 85 -66 28 -24 79 -66 115 -93 36 -28 72 -56 80 -63 8 -8 53 -43
100 -78 47 -36 92 -71 100 -78 8 -7 36 -26 63 -43 60 -37 57 -50 -21 -89 -167
-84 -198 -158 -194 -465 3 -268 6 -256 -58 -262 -74 -7 -73 -6 -72 -190 l0
-162 28 -23 c16 -12 44 -23 64 -25 l35 -3 -3 -170 c-3 -163 -2 -173 23 -239
44 -116 128 -205 228 -242 184 -68 314 -24 438 145 43 60 45 61 92 61 55 0 69
-17 43 -53 -9 -12 -22 -31 -30 -42 -11 -14 -17 -63 -22 -166 l-7 -145 29 -23
c24 -19 38 -22 94 -19 81 4 87 -12 39 -93 -17 -30 -49 -88 -71 -129 -21 -41
-48 -88 -58 -105 -25 -39 -46 -76 -95 -171 -54 -104 -65 -110 -190 -106 -90 3
-104 1 -128 -18 l-27 -21 0 -215 c0 -276 -16 -256 199 -253 87 1 162 -1 169
-5 16 -9 -3 -59 -46 -120 -35 -49 -115 -197 -173 -316 -17 -36 -35 -72 -40
-80 -5 -8 -12 -22 -15 -30 -4 -8 -35 -75 -70 -148 -35 -73 -64 -137 -64 -143
0 -5 -6 -20 -14 -32 -7 -12 -35 -71 -61 -132 -49 -114 -68 -157 -104 -236 -12
-25 -21 -51 -21 -57 0 -11 -11 -38 -61 -148 -11 -23 -19 -46 -19 -52 0 -6 -10
-33 -21 -59 -41 -92 -47 -109 -74 -193 -15 -47 -34 -99 -42 -116 -8 -17 -18
-46 -23 -65 -12 -45 -47 -146 -66 -186 -7 -17 -14 -39 -14 -50 0 -10 -7 -28
-15 -40 -8 -11 -17 -40 -21 -64 -4 -24 -15 -60 -26 -79 -10 -19 -18 -44 -18
-55 0 -17 -17 -75 -52 -180 -6 -16 -17 -59 -25 -95 -8 -35 -18 -69 -23 -75 -4
-5 -11 -28 -15 -50 -3 -22 -15 -65 -25 -95 -21 -66 -52 -176 -79 -285 -11 -44
-24 -100 -31 -125 -6 -25 -20 -82 -30 -128 -11 -45 -28 -119 -39 -165 -34
-144 -59 -254 -72 -322 -5 -27 -18 -90 -29 -140 -23 -110 -36 -182 -54 -303
-8 -51 -19 -107 -25 -125 -5 -17 -15 -76 -21 -129 -5 -53 -14 -108 -20 -122
-5 -14 -14 -72 -20 -129 -6 -57 -15 -119 -20 -138 -6 -19 -13 -72 -16 -119 -3
-47 -12 -123 -19 -170 -8 -47 -19 -150 -25 -230 -6 -80 -15 -163 -20 -185 -5
-22 -14 -134 -19 -250 -6 -115 -15 -253 -20 -305 -35 -343 -25 -432 59 -508
65 -60 263 -141 425 -174 28 -6 68 -16 90 -24 22 -8 74 -18 116 -23 41 -6 87
-14 101 -20 14 -5 69 -15 123 -20 53 -6 115 -15 138 -21 23 -5 101 -14 172
-20 72 -6 148 -15 170 -20 22 -5 126 -14 230 -20 105 -6 222 -15 260 -20 319
-43 2154 -43 2410 0 33 6 140 15 238 20 98 6 222 16 275 24 53 8 133 17 177
21 44 4 98 11 120 15 22 5 81 14 130 20 50 6 110 17 135 24 25 8 69 17 99 21
30 3 63 11 73 16 11 6 47 15 81 20 34 5 78 15 97 23 19 7 53 18 75 24 161 41
281 113 329 195 l25 42 -9 210 c-5 116 -11 224 -14 240 -3 17 -10 134 -16 260
-6 127 -14 246 -20 264 -5 18 -14 96 -20 174 -6 78 -16 164 -21 192 -5 27 -14
99 -20 160 -5 60 -14 126 -19 145 -5 19 -14 82 -20 138 -6 57 -15 114 -20 126
-4 13 -13 67 -20 122 -6 54 -15 113 -20 129 -5 17 -17 75 -25 130 -25 165 -36
226 -56 322 -11 51 -29 137 -40 190 -31 150 -60 281 -79 358 -44 175 -53 213
-61 264 -5 29 -16 69 -24 88 -8 20 -15 43 -15 52 0 9 -9 45 -19 81 -11 36 -30
99 -42 140 -12 41 -28 95 -36 120 -8 25 -20 70 -28 100 -8 30 -23 87 -34 125
-11 39 -28 97 -37 130 -9 33 -20 65 -25 71 -5 6 -14 35 -20 65 -6 30 -16 59
-21 66 -5 7 -16 34 -23 60 -7 26 -25 80 -40 118 -14 39 -31 87 -36 108 -5 21
-14 45 -19 55 -5 9 -23 60 -40 112 -17 52 -38 107 -46 122 -8 14 -14 34 -14
45 0 10 -9 32 -20 48 -11 17 -20 37 -20 45 0 9 -9 33 -20 55 -11 22 -20 43
-20 49 0 5 -8 27 -19 50 -49 110 -61 137 -61 147 0 6 -11 36 -26 67 -14 31
-31 71 -38 87 -7 17 -25 55 -39 85 -13 30 -35 78 -47 105 -43 96 -259 540
-280 575 -8 13 -96 166 -127 223 -16 28 -16 57 0 58 6 0 82 0 168 -1 206 -2
189 -24 189 246 l0 215 -27 25 c-26 24 -32 25 -131 22 l-104 -3 -24 30 c-14
17 -32 44 -40 60 -8 17 -25 48 -39 70 -13 22 -28 50 -34 62 -6 12 -26 45 -46
72 -19 28 -35 53 -35 56 0 4 -27 53 -61 111 -78 136 -77 150 11 146 56 -3 69
0 94 19 l29 23 -6 149 c-7 141 -8 151 -32 179 -38 46 -30 72 22 76 40 3 46 0
85 -45 82 -91 150 -151 176 -156 15 -3 47 -13 72 -22 46 -17 154 -13 165 6 3
5 24 13 47 19 29 8 60 31 112 83 108 108 131 187 121 403 -7 168 -11 157 55
168 72 13 79 34 71 228 -7 153 -9 158 -75 165 -25 3 -47 11 -47 17 -1 6 -2
117 -3 246 -1 199 -4 239 -17 260 -9 14 -19 37 -23 52 -9 40 -95 122 -158 152
-85 40 -89 50 -31 86 55 34 54 33 188 138 55 43 140 108 188 146 49 37 96 74
105 81 9 8 89 70 177 139 88 69 165 129 170 134 6 5 48 38 94 73 105 79 204
178 231 227 11 20 24 44 29 52 76 123 83 180 85 710 l1 475 49 6 c74 8 76 15
76 215 l0 173 -26 20 c-15 12 -39 21 -54 21 -53 0 -52 -6 -49 492 2 418 1 468
-15 518 -18 58 -65 162 -76 170 -4 3 -14 19 -23 36 -24 47 -203 204 -233 204
-3 0 -24 9 -47 19 -96 44 -188 53 -499 49 l-291 -3 -11 34 c-20 57 -34 61
-198 61 l-148 0 -26 -42 c-37 -59 -38 -59 -129 -53 -246 18 -414 -130 -420
-369 -2 -65 -5 -82 -20 -91 -48 -27 -55 -42 -55 -124 0 -99 -1 -100 -131 -103
l-104 -3 -22 -46 c-12 -26 -27 -85 -33 -133 -6 -47 -15 -97 -20 -110 -5 -13
-12 -53 -15 -88 -4 -34 -13 -85 -20 -113 -8 -27 -19 -89 -25 -138 -6 -48 -15
-99 -20 -113 -6 -14 -10 -40 -10 -58 0 -101 -28 -131 -110 -120 -49 6 -55 11
-103 71 -166 207 -454 207 -622 0 -48 -59 -54 -62 -104 -69 -91 -11 -111 11
-111 118 0 23 -5 55 -11 71 -6 15 -15 66 -21 113 -5 47 -14 93 -19 102 -5 10
-14 55 -20 100 -5 46 -14 97 -19 113 -6 17 -14 66 -20 110 -23 185 -46 211
-179 201 -106 -9 -106 -9 -106 93 0 72 -1 74 -37 105 -36 31 -36 32 -40 121
-10 231 -177 371 -426 357 -86 -4 -122 9 -122 45 0 43 -34 53 -185 53 -142 0
-147 -1 -170 -25z m209 -121 c21 -20 24 -372 4 -392 -15 -15 -50 -15 -83 0
l-25 11 0 180 c0 154 2 183 17 199 20 22 66 24 87 2z m3459 -1 c16 -19 29
-345 14 -370 -20 -31 -106 -32 -108 -1 -5 80 5 366 13 375 15 19 62 16 81 -4z
m-3705 -102 c9 -5 12 -31 10 -92 l-3 -84 -275 0 c-353 -1 -404 -10 -485 -90
-89 -90 -100 -161 -92 -649 6 -458 13 -426 -95 -426 -45 0 -69 5 -78 15 -9 11
-11 124 -7 482 l4 468 24 55 c64 146 152 234 291 292 49 20 74 22 338 28 157
3 301 7 320 8 19 1 41 -2 48 -7z m667 -21 c79 -49 110 -101 121 -206 9 -84 -2
-94 -95 -94 -90 0 -109 7 -116 40 -8 36 -70 80 -114 80 -63 0 -71 12 -71 100
0 111 4 114 139 105 75 -5 115 -12 136 -25z m2786 20 c16 -9 19 -22 19 -93 0
-95 -7 -107 -64 -107 -48 -1 -99 -39 -109 -81 -8 -30 -36 -39 -126 -39 -71 0
-81 10 -81 80 0 144 73 228 210 241 106 10 130 10 151 -1z m1109 -27 c149 -51
241 -137 310 -293 l25 -55 3 -466 c4 -538 11 -499 -92 -499 -97 0 -91 -30 -87
444 3 445 -2 498 -50 567 -32 46 -81 99 -91 99 -5 0 -23 10 -39 23 -30 22 -36
22 -350 23 -176 1 -323 5 -327 9 -12 12 -8 165 5 173 6 4 148 6 315 4 294 -3
305 -4 378 -29z m-4551 -336 c31 -72 39 -73 346 -45 30 3 30 2 33 -50 4 -76
-1 -80 -129 -84 -126 -3 -152 -19 -164 -96 -3 -20 -12 -64 -20 -97 -8 -33 -19
-98 -25 -143 -6 -46 -15 -94 -20 -106 -4 -12 -11 -49 -15 -82 -7 -71 -34 -203
-44 -224 -17 -32 -84 -19 -103 19 -32 64 -36 66 -181 69 -156 4 -197 -11 -197
-70 0 -52 -23 -68 -100 -68 -42 0 -72 5 -78 13 -7 8 -10 158 -10 437 1 488 1
490 90 543 l43 26 278 1 278 0 18 -43z m4477 13 c20 -13 45 -42 59 -70 l24
-47 2 -424 c1 -484 8 -449 -93 -449 -67 0 -98 22 -98 68 0 55 -27 67 -169 70
-136 4 -190 -13 -200 -63 -6 -34 -22 -45 -67 -45 -58 0 -68 27 -89 220 -3 30
-10 69 -15 85 -5 17 -16 75 -25 130 -50 331 -56 340 -221 336 -97 -2 -106 2
-117 49 -18 71 22 127 61 88 7 -7 59 -14 128 -17 154 -8 172 0 198 81 9 30
572 18 622 -12z m-3616 -110 c25 -25 25 -35 0 -60 -28 -28 -325 -24 -346 5
-13 17 -9 39 9 63 18 23 312 17 337 -8z m2474 -13 c20 -55 6 -61 -160 -68
-170 -6 -167 -6 -184 26 -11 20 -10 28 4 50 l17 26 157 -3 157 -3 9 -28z
m-2210 -223 c3 -9 6 -28 6 -43 0 -15 7 -48 16 -74 29 -85 59 -79 -465 -82
-426 -1 -463 0 -471 15 -12 22 5 132 26 171 l15 29 433 0 c386 0 435 -2 440
-16z m2490 -13 c20 -38 36 -140 26 -167 l-8 -21 -462 2 c-323 1 -464 5 -472
13 -8 8 -7 27 6 70 9 32 16 69 16 83 0 49 -4 49 452 49 l427 0 15 -29z m-2437
-323 c9 -10 18 -48 24 -99 5 -46 14 -97 19 -114 6 -16 15 -61 20 -100 6 -38
16 -97 24 -130 15 -63 50 -235 65 -320 5 -27 13 -70 19 -95 54 -219 59 -212
-128 -200 -178 12 -930 12 -1095 0 -161 -11 -183 5 -142 103 8 18 17 57 21 87
6 51 33 182 57 275 6 22 14 65 19 95 12 70 48 247 65 325 8 33 17 85 21 115 3
30 10 60 14 65 15 18 978 11 997 -7z m2493 2 c4 -7 11 -42 15 -78 4 -37 11
-76 16 -89 5 -13 13 -54 19 -91 10 -70 28 -159 56 -277 9 -38 20 -97 25 -130
5 -33 16 -82 23 -110 8 -27 17 -75 21 -105 4 -30 13 -70 21 -89 39 -94 22
-103 -162 -91 -197 13 -948 13 -1093 0 -146 -13 -149 -11 -131 87 6 37 18 88
25 113 8 25 17 70 20 100 4 30 13 75 20 100 8 25 16 70 20 100 3 30 13 78 20
105 8 28 17 78 21 110 3 33 15 93 25 134 10 41 19 95 19 120 0 27 8 59 18 76
l19 30 487 -1 c392 0 489 -3 496 -14z m-3959 -326 c18 -22 20 -367 1 -386 -14
-14 -86 -17 -99 -4 -17 17 -4 380 14 394 23 17 68 15 84 -4z m4530 -21 c20
-52 7 -352 -15 -369 -23 -16 -64 -18 -86 -4 -16 10 -23 345 -8 383 13 31 96
24 109 -10z m-2178 -52 c114 -78 161 -203 116 -307 -88 -198 -292 -246 -442
-105 -127 119 -105 311 48 410 82 53 200 54 278 2z m-2141 -2 c34 -18 7 -185
-35 -214 -35 -24 -47 3 -47 104 0 89 4 104 30 114 23 8 30 8 52 -4z m4076 -11
c19 -19 16 -187 -3 -194 -35 -14 -64 5 -70 44 -3 20 -10 60 -14 87 -6 32 -6
54 1 63 13 15 70 16 86 0z m-4530 -40 c22 -22 15 -115 -9 -132 -38 -26 -592
-23 -619 4 -25 25 -28 101 -4 124 20 21 612 24 632 4z m5543 2 c27 -15 27
-100 -1 -125 -28 -25 -579 -35 -616 -10 -31 20 -36 117 -6 134 23 14 597 15
623 1z m-3491 -119 c16 -30 13 -116 -5 -131 -38 -31 -98 96 -64 136 17 20 56
17 69 -5z m872 8 c39 -21 3 -139 -42 -139 -22 0 -30 20 -30 73 0 52 9 67 48
76 2 1 12 -4 24 -10z m-3263 -169 c17 -9 18 -32 13 -422 -7 -601 -1 -618 268
-823 50 -39 127 -98 171 -133 44 -34 128 -99 187 -144 59 -45 181 -141 272
-213 91 -71 176 -138 190 -148 14 -9 52 -37 86 -61 33 -24 71 -47 85 -51 13
-4 35 -14 49 -24 21 -14 62 -16 286 -17 144 -1 267 -4 273 -8 15 -10 15 -158
-1 -174 -9 -9 -81 -12 -262 -12 -302 0 -384 17 -511 104 -31 22 -365 287 -400
318 -11 9 -66 54 -123 98 -56 44 -110 87 -120 96 -30 27 -284 226 -347 271
-138 101 -199 178 -257 323 -21 53 -22 70 -26 534 -3 392 -1 480 10 487 18 12
135 11 157 -1z m308 4 c16 -5 26 -20 38 -60 19 -67 21 -68 221 -62 l154 5 0
-32 c0 -18 -12 -68 -26 -111 -25 -75 -34 -266 -25 -519 1 -11 20 -49 42 -85
66 -102 84 -131 124 -195 21 -33 63 -98 94 -145 l56 -85 7 -109 c9 -144 19
-156 129 -156 110 0 111 -1 100 -197 -3 -53 -79 0 -421 290 -14 12 -114 91
-158 124 -13 10 -33 26 -45 36 -41 33 -286 222 -319 246 -114 83 -118 105
-118 616 l0 426 23 9 c26 10 92 12 124 4z m5107 0 c14 -5 16 -54 16 -443 -1
-547 7 -518 -191 -668 -194 -148 -242 -184 -254 -196 -8 -7 -24 -20 -37 -30
-34 -26 -141 -110 -158 -125 -8 -7 -51 -42 -95 -78 -44 -35 -87 -70 -95 -77
-222 -193 -234 -196 -238 -62 -3 122 -1 125 109 125 111 0 116 6 125 144 7
105 8 111 45 167 22 32 39 60 39 62 0 3 24 41 53 86 28 44 63 99 77 122 14 23
44 71 67 108 l43 66 0 215 c0 160 -4 230 -16 275 -51 199 -50 211 2 196 17 -5
73 -10 125 -11 191 -6 201 -2 213 69 3 22 14 45 24 50 19 11 121 15 146 5z
m336 -9 c9 -11 11 -122 7 -487 -4 -471 -5 -473 -29 -539 -48 -130 -107 -202
-258 -316 -36 -27 -74 -56 -85 -65 -34 -28 -380 -300 -456 -358 -39 -30 -81
-64 -93 -75 -11 -12 -32 -28 -46 -37 -21 -13 -108 -85 -160 -132 -102 -92
-246 -175 -335 -194 -72 -16 -570 -23 -584 -9 -16 16 -14 164 2 174 6 4 129 8
272 8 334 1 283 -21 670 281 88 68 170 132 181 141 12 10 32 26 45 35 21 15
242 186 309 239 14 10 81 64 150 118 244 192 243 187 238 799 -3 358 -1 414
12 422 25 16 146 12 160 -5z m-3251 -162 c37 -38 82 -78 99 -91 l32 -24 0
-429 c0 -335 -3 -430 -12 -433 -7 -2 -31 -8 -53 -12 l-40 -9 -5 -135 -5 -135
-37 -3 c-77 -6 -79 -1 -76 178 3 187 1 190 -78 190 -70 0 -73 27 -13 113 22
32 54 84 70 116 l30 57 1 194 c1 200 -10 314 -39 409 -16 51 -16 54 2 67 33
25 55 15 124 -53z m722 51 c10 -13 10 -22 -1 -52 -29 -79 -43 -193 -47 -387
-5 -223 -2 -236 70 -348 99 -152 101 -167 25 -167 -29 0 -58 -4 -65 -8 -14 -9
-35 -61 -28 -72 2 -4 6 -64 7 -133 2 -147 -3 -160 -66 -155 l-41 3 -5 123 c-5
131 -19 162 -69 162 -40 0 -41 9 -41 443 l0 418 28 24 c36 33 123 118 145 144
20 25 69 28 88 5z m-400 -194 c18 -10 19 -26 19 -419 0 -448 1 -443 -57 -424
l-28 10 -3 409 c-2 376 -1 410 15 422 20 15 29 15 54 2z m-564 -144 c18 -7 19
-166 1 -166 -129 -5 -1424 2 -1429 7 -14 14 -15 139 -2 154 11 14 1394 18
1430 5z m2505 -9 c12 -19 9 -121 -4 -140 -15 -20 -1410 -29 -1430 -9 -13 13
-19 118 -8 146 l8 21 713 -3 c554 -2 715 -5 721 -15z m-3397 -283 c297 -4 530
-2 659 5 264 15 262 17 161 -134 -36 -53 -68 -108 -71 -121 -3 -13 -12 -28
-19 -34 -7 -6 -25 -34 -40 -63 -14 -29 -35 -62 -45 -75 l-19 -23 -442 1 c-243
0 -445 3 -450 5 -4 3 -31 47 -60 98 -29 50 -68 113 -86 139 -18 26 -33 50 -33
53 0 3 -18 33 -40 66 -52 79 -52 107 0 95 14 -4 232 -9 485 -12z m2726 3 c312
0 585 4 608 8 57 9 66 -12 29 -69 -7 -11 -29 -44 -48 -74 -19 -29 -69 -111
-110 -180 l-75 -127 -440 -5 c-242 -3 -445 -3 -452 -2 -15 5 -76 98 -125 192
-7 14 -26 45 -43 70 -127 187 -127 206 5 194 47 -5 340 -8 651 -7z m-1831
-467 c12 -8 15 -32 13 -129 l-3 -119 -65 -65 c-77 -77 -95 -115 -95 -196 0
-76 -14 -91 -84 -91 -28 0 -57 -5 -63 -11 -6 -6 -21 -9 -34 -7 -24 3 -24 5
-27 127 -3 150 -3 151 89 151 l69 0 20 40 c15 30 20 59 20 119 0 90 10 124 48
164 27 28 81 37 112 17z m1183 -29 c38 -42 44 -62 50 -176 6 -112 23 -135 100
-135 85 0 84 1 90 -126 7 -131 -2 -157 -47 -136 -15 7 -48 12 -74 12 -66 0
-72 8 -83 89 -10 81 -34 123 -115 205 l-49 48 -2 107 c-2 126 8 151 61 151 26
0 41 -8 69 -39z m-529 -47 c25 -24 22 -130 -3 -144 -33 -17 -227 -13 -245 6
-24 23 -21 109 4 134 27 27 218 30 244 4z m-966 -27 c14 -10 16 -65 2 -87 -17
-27 -779 -16 -803 12 -18 22 -15 55 8 73 15 12 774 14 793 2z m2488 -1 c19 -7
18 -70 -1 -86 -23 -19 -773 -21 -792 -2 -17 18 -17 79 1 89 16 9 769 8 792 -1z
m-2688 -249 c13 -9 18 -289 6 -321 -9 -24 -339 -24 -372 0 -31 21 -35 320 -4
326 36 7 358 3 370 -5z m2470 -1 c8 -5 12 -53 12 -156 l0 -149 -30 -16 c-21
-11 -45 -14 -82 -10 -29 3 -99 2 -156 -2 -56 -5 -109 -5 -117 0 -22 12 -22
322 -1 334 18 10 358 9 374 -1z m-955 -39 c74 -48 110 -167 65 -214 -21 -22
-21 -30 -21 -273 0 -142 -4 -253 -9 -256 -5 -4 -95 -5 -199 -5 -121 1 -196 -2
-209 -9 -31 -17 -27 -483 4 -506 24 -17 780 -21 806 -4 13 8 15 45 12 254 -2
164 1 247 8 251 20 12 433 5 448 -8 12 -9 13 -50 9 -237 -5 -265 -14 -307 -78
-365 -77 -70 -74 -69 -475 -73 l-360 -4 -30 25 c-30 25 -30 25 -249 25 -121 1
-291 -2 -378 -6 -181 -8 -204 -4 -236 39 -36 49 -22 54 152 50 138 -2 154 -1
169 16 22 24 31 554 10 575 -9 9 -68 14 -215 18 l-202 5 3 225 3 225 -26 34
c-55 76 -5 210 87 231 77 17 883 6 911 -13z m292 -317 c15 -24 11 -413 -4
-428 -16 -16 -86 -11 -104 7 -20 20 -10 403 11 419 19 15 88 16 97 2z m-1417
-22 c10 -9 13 -105 12 -467 -1 -284 2 -466 8 -482 8 -21 127 -160 152 -179 4
-3 15 -20 25 -39 27 -54 3 -90 -54 -81 -33 4 -174 139 -221 210 l-29 46 -1
493 c-1 378 2 496 11 508 14 16 73 10 97 -9z m-893 -418 c25 -10 26 -11 23
-97 l-3 -88 -76 -5 c-133 -10 -154 -47 -147 -267 6 -188 8 -185 -92 -181 l-75
3 0 240 c0 238 0 240 25 280 60 97 85 107 297 123 12 1 33 -2 48 -8z m3352
-27 c111 -65 124 -108 121 -390 l-3 -218 -74 -3 c-41 -2 -78 1 -84 7 -6 6 -9
77 -8 173 l2 164 -31 42 c-35 48 -62 62 -125 62 -65 0 -76 16 -73 108 4 92 7
94 143 86 71 -5 98 -11 132 -31z m-2721 16 c8 -6 10 -87 6 -272 l-5 -262 27
-58 c26 -57 24 -97 -5 -97 -51 0 -307 23 -323 30 -77 29 -144 125 -160 230
-13 86 -11 421 3 429 19 12 443 11 457 0z m674 -84 c15 -18 18 -311 3 -326 -6
-6 -63 -8 -139 -7 l-129 3 -3 159 c-1 90 2 163 7 170 15 18 246 19 261 1z
m998 -47 c18 -18 16 -202 -2 -217 -10 -8 -92 -13 -260 -16 -291 -5 -274 -13
-271 122 3 117 -7 112 214 116 102 1 213 3 247 5 36 1 65 -3 72 -10z m-2295
-192 c9 -9 16 -48 20 -112 15 -228 182 -384 413 -384 84 0 107 -18 85 -66 -10
-23 -16 -24 -95 -24 -89 0 -116 -12 -116 -49 0 -35 -21 -41 -146 -41 -87 0
-125 4 -132 13 -7 7 -12 72 -13 157 l-1 145 -44 41 -44 41 0 124 c0 152 24
203 73 155z m3148 -16 c4 -14 7 -79 8 -145 l1 -121 -45 -37 -45 -38 0 -149 c0
-82 -3 -151 -7 -153 -5 -3 -66 -6 -138 -8 l-130 -4 -10 33 c-17 49 -27 55
-105 53 -85 -2 -110 9 -110 48 0 36 12 41 111 41 217 0 370 153 385 387 7 125
7 125 46 121 25 -2 34 -9 39 -28z m447 -436 c27 -18 31 -78 6 -88 -9 -3 -99
-6 -200 -6 l-184 0 -11 26 c-10 29 -5 56 15 76 19 19 343 12 374 -8z m-3726
-1 c25 -23 24 -80 -2 -88 -27 -9 -375 -9 -389 -1 -16 11 -13 72 5 90 24 24
359 24 386 -1z m1983 -14 c12 -9 14 -504 2 -515 -8 -8 -615 -9 -623 -1 -8 7
-7 503 0 515 7 11 607 13 621 1z m-1006 -38 c11 -7 11 -18 3 -57 -6 -27 -13
-124 -15 -215 -6 -236 4 -254 135 -243 93 8 112 -1 127 -60 7 -27 18 -47 28
-50 10 -3 203 -5 430 -5 460 0 429 -5 455 74 l14 40 79 -3 c154 -5 155 -2 146
260 -7 219 -10 225 -102 237 -88 12 -18 25 141 25 l135 1 3 -333 c1 -218 -1
-340 -8 -352 -17 -31 -1733 -31 -1750 -1 -15 29 -14 663 2 679 14 14 156 16
177 3z m231 -126 c25 -30 16 -226 -10 -247 -26 -21 -61 -23 -78 -6 -13 13 -18
249 -5 261 13 13 81 7 93 -8z m1024 -11 c14 -36 6 -222 -10 -238 -21 -22 -50
-20 -74 4 -26 26 -30 192 -4 228 18 27 78 31 88 6z m-2233 -84 c15 -19 29 -38
29 -42 0 -3 17 -17 37 -29 35 -22 45 -23 197 -21 186 4 176 10 176 -104 0
-104 -3 -107 -108 -98 -91 8 -96 5 -170 -100 -95 -134 -273 -130 -370 9 l-35
49 -5 173 c-6 212 -13 201 119 199 l101 -1 29 -35z m3589 25 c9 -11 10 -58 5
-189 -8 -174 -8 -176 -39 -223 -94 -144 -287 -135 -378 17 -47 78 -53 81 -150
79 -109 -3 -110 -3 -106 107 l3 89 155 5 c175 6 207 16 253 75 38 48 55 54
158 54 64 1 90 -3 99 -14z m-2947 -7 c20 -15 31 -450 13 -468 -14 -14 -72 -12
-84 3 -21 25 -9 447 13 463 23 17 36 18 58 2z m2130 -1 c25 -18 34 -428 11
-452 -21 -20 -50 -19 -72 3 -24 24 -25 438 -1 453 20 12 42 11 62 -4z m60
-636 c17 -2 7 -110 -10 -114 -40 -9 -2288 -7 -2303 2 -18 12 -21 98 -3 109 8
5 2252 8 2316 3z m-158 -348 c28 -55 56 -108 63 -116 8 -9 12 -23 10 -32 -4
-23 -2141 -25 -2146 -2 -2 7 15 46 38 85 22 39 40 75 40 78 0 4 11 26 24 48
l24 41 948 -1 949 -1 50 -100z m160 -304 c13 -13 31 -42 85 -141 37 -68 134
-63 -1245 -63 l-1255 0 0 21 c0 12 12 38 26 60 14 21 29 45 33 54 3 8 16 31
28 50 l22 35 1146 -1 c958 -1 1149 -4 1160 -15z m393 -361 c17 -17 16 -173 -1
-190 -21 -20 -3095 -18 -3108 3 -12 19 -11 156 1 180 11 19 38 19 1553 19
1187 0 1546 -3 1555 -12z m-1510 -539 l2 -196 53 -35 c160 -107 153 -299 -14
-383 -224 -114 -413 212 -204 352 92 62 86 43 79 250 -8 203 -5 216 50 211
l31 -3 3 -196z m-200 43 l3 -143 -33 -27 c-74 -61 -120 -116 -148 -179 -17
-37 -33 -69 -36 -72 -3 -3 -92 -7 -197 -8 -284 -3 -620 -21 -722 -38 -103 -17
-185 -19 -185 -5 0 5 16 40 36 77 20 38 48 91 62 118 14 28 29 57 33 65 5 8
19 35 32 60 13 25 45 82 70 127 26 45 47 86 47 90 0 5 11 25 25 46 l26 37 492
-2 492 -3 3 -143z m1319 131 c8 -10 23 -36 33 -58 11 -22 24 -47 30 -55 5 -8
15 -26 20 -40 6 -14 22 -45 36 -70 14 -25 51 -92 81 -150 76 -143 93 -173 104
-184 13 -14 11 -53 -3 -59 -7 -2 -60 2 -118 10 -218 29 -268 32 -614 39 -239
5 -359 11 -365 18 -4 6 -18 38 -30 71 -27 71 -78 137 -130 167 l-38 22 -6 138
c-3 77 -3 146 0 154 9 24 980 21 1000 -3z m-1508 -707 c12 -18 21 -40 21 -47
1 -8 20 -38 43 -68 105 -136 306 -174 459 -86 60 34 135 119 149 167 17 64 31
71 123 64 244 -20 357 -25 501 -26 88 0 205 -5 260 -11 55 -5 138 -12 185 -15
165 -10 142 9 232 -194 11 -25 35 -76 53 -115 121 -256 121 -265 15 -235 -19
5 -120 16 -225 25 -104 8 -246 21 -315 27 -172 15 -2204 16 -2350 0 -58 -6
-181 -18 -275 -27 -93 -8 -193 -22 -222 -30 -91 -26 -99 -9 -47 105 45 97 105
224 125 262 10 20 19 43 19 50 0 19 48 111 63 120 6 4 41 8 77 8 36 0 94 5
130 10 36 6 207 15 380 20 173 6 349 14 390 19 161 18 186 15 209 -23z m1141
-636 c206 -5 413 -14 460 -20 47 -6 188 -15 314 -21 126 -5 238 -15 248 -20
18 -10 58 -78 58 -101 1 -7 9 -31 20 -53 11 -22 19 -46 20 -52 0 -7 18 -57 40
-110 22 -54 40 -102 40 -106 0 -5 12 -33 26 -63 47 -99 25 -108 -156 -68 -36
8 -141 19 -235 25 -93 5 -199 14 -235 19 -306 44 -2417 44 -2765 1 -44 -6
-154 -15 -245 -21 -91 -5 -196 -16 -235 -24 -197 -40 -217 -32 -171 67 15 30
26 60 26 68 0 8 6 23 13 34 12 19 45 101 89 225 11 30 31 78 43 106 28 61 22
60 310 74 105 6 226 15 270 21 176 25 1389 36 2065 19z m-110 -675 c311 -8
600 -19 643 -24 42 -6 173 -15 290 -21 116 -6 232 -15 257 -20 25 -5 78 -9
118 -10 86 0 115 -20 125 -87 4 -22 14 -53 22 -69 8 -16 15 -37 15 -47 0 -10
7 -34 16 -55 9 -20 22 -59 29 -87 8 -27 23 -75 34 -105 11 -30 27 -73 35 -95
21 -59 7 -79 -47 -70 -234 39 -390 54 -907 85 -637 38 -1567 45 -2284 17 -252
-10 -463 -20 -467 -23 -4 -2 -110 -11 -234 -19 -125 -8 -230 -17 -235 -20 -4
-3 -68 -12 -142 -20 -73 -9 -148 -20 -166 -26 -18 -6 -39 -8 -47 -5 -19 7 -20
65 -2 91 8 11 19 42 26 70 7 27 16 54 21 60 4 5 11 26 15 45 7 36 38 139 61
200 7 19 18 53 24 76 16 66 28 71 184 84 76 6 142 12 146 15 3 2 97 9 208 15
110 6 238 15 284 21 85 11 857 35 1213 37 110 1 454 -5 765 -13z m300 -724
c190 -6 381 -15 425 -20 44 -6 168 -15 275 -21 107 -6 222 -15 255 -21 33 -5
129 -12 214 -16 l154 -6 18 -41 c10 -23 25 -72 33 -111 21 -95 36 -151 53
-205 8 -25 19 -65 24 -90 5 -25 19 -74 30 -109 30 -89 18 -117 -40 -96 -22 8
-87 19 -143 25 -57 6 -124 16 -151 21 -26 4 -127 13 -225 19 -97 5 -244 17
-327 25 -82 8 -283 19 -445 25 -162 6 -407 15 -545 21 -290 13 -1388 5 -1570
-11 -66 -5 -237 -14 -380 -20 -143 -5 -290 -14 -326 -20 -37 -5 -143 -14 -235
-19 -93 -6 -212 -17 -264 -25 -122 -19 -228 -36 -262 -43 -40 -8 -44 27 -13
114 14 40 25 82 25 93 0 12 5 31 12 43 6 12 17 47 24 77 72 320 70 317 191
325 54 3 143 10 198 16 55 5 165 14 245 20 80 5 210 17 290 25 80 8 318 19
530 25 212 5 401 11 420 13 57 7 1137 -3 1510 -13z m-195 -741 c94 -6 296 -15
450 -20 154 -6 316 -15 360 -20 44 -5 167 -14 272 -20 106 -5 214 -15 240 -21
27 -6 124 -14 217 -18 196 -9 183 -2 209 -122 10 -46 26 -122 37 -169 10 -47
22 -107 25 -135 4 -27 11 -57 16 -66 5 -9 13 -50 19 -90 6 -41 18 -94 25 -118
18 -54 6 -87 -28 -77 -12 4 -51 11 -87 17 -36 5 -110 17 -165 25 -55 8 -176
22 -270 29 -93 8 -224 19 -290 24 -66 6 -201 15 -300 21 -99 6 -245 16 -325
22 -199 14 -2280 14 -2460 -1 -74 -6 -254 -17 -399 -26 -145 -8 -289 -19 -320
-24 -31 -5 -105 -13 -166 -16 -60 -3 -159 -15 -220 -25 -113 -19 -261 -40
-281 -40 -20 0 -24 29 -9 68 7 20 19 70 25 111 6 40 14 81 19 90 5 9 12 41 16
71 3 30 13 78 20 106 8 28 19 80 25 115 13 86 37 170 53 186 8 8 68 16 172 23
88 5 185 14 215 20 30 6 136 15 235 20 99 5 216 14 260 20 44 6 204 15 355 21
151 6 336 14 410 18 202 12 1450 12 1645 1z m-95 -860 c294 -5 577 -14 629
-20 52 -6 196 -14 320 -20 124 -5 251 -14 281 -20 30 -6 123 -15 205 -20 83
-6 175 -15 206 -20 30 -6 115 -14 188 -19 173 -11 175 -13 191 -161 6 -58 15
-121 21 -140 5 -19 14 -78 19 -130 6 -52 17 -126 24 -165 21 -107 38 -253 31
-265 -9 -14 -40 -13 -80 4 -18 8 -75 19 -127 25 -51 7 -106 16 -123 21 -27 9
-140 23 -390 49 -210 23 -598 51 -830 62 -137 6 -313 15 -390 19 -187 11
-1634 11 -1805 0 -74 -4 -234 -13 -355 -19 -121 -6 -294 -19 -385 -27 -91 -9
-226 -20 -300 -25 -74 -5 -157 -13 -185 -19 -27 -5 -103 -14 -167 -20 -65 -6
-129 -15 -143 -20 -14 -5 -66 -14 -114 -20 -49 -5 -107 -17 -131 -25 -50 -17
-86 -19 -95 -5 -7 12 9 158 30 270 8 41 19 113 24 160 5 47 14 106 20 130 6
25 15 89 21 143 15 147 25 157 144 157 42 0 120 6 174 14 53 8 169 20 257 26
88 6 180 16 205 21 24 6 141 14 260 19 118 5 265 15 325 21 225 23 1264 33
2045 19z m337 -939 c77 -6 251 -15 385 -21 133 -5 270 -14 303 -20 33 -5 134
-15 225 -21 91 -5 183 -14 205 -19 22 -5 96 -14 165 -20 69 -6 141 -16 160
-21 19 -5 82 -14 140 -19 58 -6 130 -16 160 -23 l55 -12 7 -75 c4 -41 14 -133
22 -205 33 -288 37 -348 22 -363 -14 -14 -29 -12 -151 24 -54 16 -162 38 -265
55 -36 6 -103 17 -150 25 -47 9 -139 20 -205 25 -66 5 -142 14 -168 19 -27 6
-115 15 -195 20 -81 6 -181 15 -222 20 -41 6 -194 15 -340 20 -146 6 -326 15
-400 20 -231 16 -960 22 -1295 11 -681 -22 -1111 -50 -1540 -101 -49 -6 -126
-15 -170 -20 -151 -18 -448 -74 -520 -98 -117 -39 -125 -40 -141 -24 -9 8 -13
24 -10 36 2 12 8 68 11 126 4 58 13 146 20 195 7 50 16 134 20 187 4 60 11 98
19 101 27 10 278 47 496 72 74 8 160 20 190 25 30 5 125 14 210 20 85 6 180
15 210 20 30 5 161 14 290 20 129 5 303 14 385 20 285 20 1799 21 2072 1z
m-257 -711 c102 -5 291 -14 420 -20 129 -6 282 -15 340 -20 58 -6 181 -17 274
-25 93 -8 192 -19 220 -24 28 -6 101 -15 161 -21 61 -5 124 -14 141 -19 17 -5
64 -12 105 -15 41 -4 97 -13 124 -21 28 -7 70 -16 95 -20 43 -6 130 -25 212
-46 44 -11 51 -34 46 -139 l-3 -65 -30 3 c-16 2 -41 10 -53 19 -34 21 -126 52
-202 68 -36 8 -77 18 -91 23 -14 6 -52 13 -85 17 -32 4 -86 13 -119 20 -33 7
-98 16 -145 20 -47 3 -119 13 -160 20 -41 8 -131 17 -200 20 -69 4 -170 13
-225 20 -55 7 -170 16 -255 20 -85 3 -243 13 -350 22 -286 24 -1725 24 -2010
0 -107 -9 -260 -19 -340 -22 -80 -4 -188 -13 -240 -20 -52 -8 -147 -17 -210
-20 -63 -4 -151 -13 -195 -20 -44 -7 -118 -17 -165 -20 -47 -4 -103 -11 -125
-17 -22 -6 -80 -16 -130 -24 -125 -19 -256 -48 -282 -62 -12 -7 -30 -12 -41
-12 -10 0 -40 -11 -66 -25 -95 -50 -117 -35 -104 72 10 84 20 101 66 108 20 3
60 12 88 20 28 8 62 15 75 15 14 0 52 7 84 16 59 16 125 26 375 58 69 9 168
23 220 31 52 8 140 17 195 20 55 4 127 11 160 16 33 5 197 16 365 25 168 8
368 19 445 23 197 11 1392 12 1615 1z m290 -319 c52 -6 210 -15 350 -21 245
-10 343 -20 310 -33 -73 -29 -227 -45 -505 -52 -126 -3 -345 -13 -485 -21
-299 -16 -1112 -19 -1371 -4 -96 6 -338 17 -539 25 -629 26 -760 67 -272 85
139 6 259 13 264 16 37 23 2047 27 2248 5z m-3165 -126 c130 -24 310 -46 460
-56 77 -5 210 -16 295 -24 85 -8 274 -20 420 -25 146 -6 373 -15 505 -20 299
-12 630 -12 885 0 107 5 321 14 475 20 154 6 336 17 405 25 69 8 181 17 250
20 69 4 163 13 210 20 47 8 121 17 165 21 44 3 105 12 136 20 74 18 213 18
292 -1 34 -8 83 -17 110 -20 84 -11 39 -66 -66 -79 -29 -4 -79 -13 -112 -21
-104 -25 -226 -46 -347 -60 -65 -7 -122 -16 -128 -20 -6 -4 -96 -13 -201 -21
-105 -8 -195 -16 -199 -19 -5 -3 -141 -12 -302 -20 -161 -8 -374 -19 -473 -25
-225 -12 -1132 -12 -1320 0 -77 5 -246 14 -375 20 -129 6 -287 15 -350 21 -63
5 -189 16 -280 24 -91 8 -179 19 -197 24 -17 5 -67 12 -110 16 -82 6 -269 36
-388 60 -38 9 -96 20 -127 26 -94 17 -107 63 -21 73 26 4 75 13 108 20 81 19
184 19 280 1z m-622 -107 c91 -49 405 -135 577 -158 41 -6 91 -15 110 -20 19
-5 86 -14 149 -20 63 -6 118 -13 123 -16 12 -7 413 -43 618 -54 635 -36 779
-41 1190 -39 239 1 503 6 585 10 83 4 265 13 405 19 140 6 309 17 375 24 66 8
161 17 210 21 50 3 126 12 170 20 44 7 114 16 155 20 41 3 100 12 130 20 30 7
82 16 115 20 33 3 83 13 110 21 28 7 77 21 110 29 155 40 265 77 299 101 56
39 218 -50 178 -98 -41 -50 -318 -140 -529 -173 -45 -7 -86 -16 -92 -19 -5 -4
-57 -13 -116 -21 -58 -8 -125 -19 -148 -24 -23 -5 -78 -12 -122 -16 -44 -3
-120 -13 -170 -20 -49 -8 -162 -19 -250 -25 -88 -5 -205 -14 -260 -19 -463
-45 -1924 -45 -2365 0 -52 5 -169 14 -260 19 -91 6 -197 15 -237 21 -40 6
-128 16 -195 24 -142 15 -295 39 -388 60 -36 8 -87 17 -115 20 -27 4 -70 13
-95 20 -25 8 -65 17 -90 20 -25 4 -56 13 -70 20 -14 7 -43 16 -65 19 -22 4
-49 13 -60 20 -11 7 -32 16 -47 19 -106 27 -127 92 -43 138 56 31 76 35 108
17z"/>
<path d="M11933 17451 c-53 -44 -52 -115 1 -156 63 -48 136 -8 136 74 0 83
-80 130 -137 82z"/>
</g>
</svg>
