<?xml version="1.0" standalone="no"?>
<!DOCTYPE svg PUBLIC "-//W3C//DTD SVG 20010904//EN"
 "http://www.w3.org/TR/2001/REC-SVG-20010904/DTD/svg10.dtd">
<svg version="1.0" xmlns="http://www.w3.org/2000/svg"
 width="600.000000pt" height="600.000000pt" viewBox="0 0 600.000000 600.000000"
 preserveAspectRatio="xMidYMid meet">
<g transform="translate(0.000000,600.000000) scale(0.100000,-0.100000)"
fill="#000000" stroke="none">
<path d="M4835 5124 c-103 -21 -136 -30 -208 -58 -127 -50 -218 -115 -366
-260 -145 -142 -170 -181 -171 -262 0 -51 0 -51 -82 -129 -46 -43 -360 -351
-698 -684 -338 -333 -712 -700 -830 -817 -179 -176 -224 -215 -270 -234 -106
-44 -196 -93 -245 -136 -49 -41 -54 -43 -195 -68 -80 -14 -242 -44 -360 -66
l-214 -39 -168 -168 c-92 -92 -168 -175 -168 -185 0 -9 6 -23 14 -30 8 -8 103
-34 212 -57 110 -24 209 -45 221 -48 16 -3 22 -14 25 -41 3 -21 8 -44 12 -53
6 -13 -11 -23 -83 -54 -117 -49 -123 -61 -60 -130 36 -39 39 -45 21 -45 -40 0
-117 -32 -168 -70 -90 -68 -167 -202 -242 -421 -53 -155 -69 -227 -55 -247 17
-27 95 -19 211 21 342 119 502 242 528 407 l7 41 42 -41 c33 -33 48 -41 71
-38 27 3 31 10 63 100 32 91 36 96 55 86 12 -6 34 -14 50 -18 l30 -6 38 -219
c40 -231 52 -264 95 -251 10 3 93 81 185 174 l166 167 12 75 c7 41 38 199 70
351 l57 278 49 53 c27 30 77 106 112 170 l63 116 502 494 c275 271 603 592
726 713 124 121 311 304 416 407 l190 188 60 0 c42 0 69 6 90 19 46 29 276
259 323 323 87 119 145 258 167 408 38 244 9 291 -180 289 -55 -1 -109 -3
-120 -5z m216 -106 c26 -49 -14 -260 -74 -391 -50 -108 -103 -176 -251 -319
l-131 -128 -51 0 -51 0 -156 160 -157 159 0 47 c0 47 1 48 123 172 137 139
212 197 319 246 115 54 199 72 335 75 75 1 83 -1 94 -21z m-641 -888 c0 -5 -4
-10 -10 -12 -5 -1 -94 -86 -197 -188 -104 -102 -241 -237 -306 -300 l-117
-114 -135 134 c-74 74 -135 138 -135 142 0 4 141 147 313 317 l312 310 138
-140 c75 -77 137 -144 137 -149z m-834 -535 c71 -75 130 -139 132 -143 1 -4
-46 -55 -105 -113 -60 -57 -308 -300 -552 -539 -324 -318 -452 -437 -475 -443
-125 -32 -164 -58 -620 -426 -186 -150 -340 -270 -342 -268 -4 4 362 457 526
652 86 102 144 192 170 264 19 53 53 89 573 603 303 301 555 547 558 548 4 0
65 -61 135 -135z m-1382 -1057 c-9 -18 -38 -60 -63 -93 -33 -43 -547 -676
-588 -724 -2 -3 -30 22 -63 54 -43 43 -60 67 -60 86 0 21 58 84 309 331 290
287 314 308 391 347 46 23 85 39 87 37 3 -2 -3 -19 -13 -38z m-580 -336 c-105
-103 -205 -199 -221 -215 l-29 -27 -180 41 c-98 22 -180 42 -181 43 -2 1 52
56 120 122 l122 121 100 18 c55 10 174 33 265 51 91 18 172 33 180 33 8 0 -71
-84 -176 -187z m886 -23 c-50 -91 -44 -83 -387 -421 -210 -208 -298 -288 -315
-288 -23 0 -128 94 -128 115 1 9 336 280 654 528 90 71 190 137 208 137 3 0
-11 -32 -32 -71z m-236 -624 l-54 -270 -123 -123 -123 -123 -32 178 c-18 98
-32 185 -32 194 0 15 407 425 415 417 2 -2 -21 -125 -51 -273z m-729 37 l109
-113 -25 -75 -24 -75 -154 154 c-84 85 -153 158 -153 162 1 8 123 65 133 62 3
-1 54 -53 114 -115z m-206 -126 c40 -21 82 -81 88 -126 3 -23 -2 -62 -13 -97
-27 -88 -95 -149 -247 -222 -130 -63 -282 -120 -292 -110 -11 11 73 247 120
337 73 142 131 197 232 221 56 13 81 13 112 -3z"/>
</g>
</svg>
