<?xml version="1.0" standalone="no"?>
<!DOCTYPE svg PUBLIC "-//W3C//DTD SVG 20010904//EN"
 "http://www.w3.org/TR/2001/REC-SVG-20010904/DTD/svg10.dtd">
<svg version="1.0" xmlns="http://www.w3.org/2000/svg"
 width="600.000000pt" height="600.000000pt" viewBox="0 0 600.000000 600.000000"
 preserveAspectRatio="xMidYMid meet">
<g transform="translate(0.000000,600.000000) scale(0.100000,-0.100000)"
fill="#000000" stroke="none">
<path d="M2921 4564 c-34 -25 -53 -76 -40 -111 6 -15 16 -35 24 -43 9 -10 11
-26 6 -50 l-7 -35 -116 -3 c-87 -2 -117 -6 -121 -16 -10 -25 18 -131 47 -179
29 -51 88 -100 149 -125 32 -13 37 -20 37 -46 l0 -31 -90 0 c-76 0 -92 -3
-109 -20 -20 -22 -34 -84 -22 -104 5 -8 85 -11 307 -9 l299 3 3 29 c10 81 -30
109 -149 104 l-79 -3 0 30 c0 27 6 33 55 54 99 43 176 152 179 255 l1 51 -116
3 -117 3 -10 39 c-8 31 -7 42 4 51 21 17 32 70 21 102 -20 60 -103 87 -156 51z
m94 -49 c31 -30 31 -36 -1 -74 -14 -17 -23 -38 -21 -48 20 -71 19 -73 -14 -73
-26 0 -30 3 -24 18 19 49 17 72 -9 102 -14 18 -26 36 -26 41 0 13 46 59 60 59
6 0 22 -11 35 -25z m235 -251 c0 -6 -8 -32 -17 -59 -22 -66 -93 -136 -164
-162 l-54 -21 0 -68 0 -69 110 -5 c105 -5 110 -6 113 -27 l3 -23 -260 0 c-208
0 -261 3 -261 13 0 30 25 37 127 37 l103 0 0 73 0 74 -42 12 c-85 26 -150 90
-179 175 -10 28 -16 53 -14 56 7 11 535 5 535 -6z"/>
<path d="M2492 3760 c-61 -38 -60 -17 -60 -790 -1 -452 3 -717 9 -737 6 -18
24 -44 40 -58 l31 -25 465 0 c417 0 468 2 493 17 64 37 61 4 58 810 l-3 733
-33 32 -32 33 -468 3 c-455 2 -468 2 -500 -18z m965 -52 l23 -21 0 -721 0
-720 -22 -23 -21 -23 -458 0 -458 0 -20 27 c-21 26 -21 29 -19 745 l3 720 24
19 c22 18 45 19 474 19 449 0 451 0 474 -22z"/>
<path d="M2552 3674 l-22 -15 0 -694 0 -694 22 -15 c19 -14 78 -16 435 -16
400 0 414 1 433 20 20 20 20 33 20 700 l0 681 -25 24 -24 25 -408 0 c-354 0
-412 -2 -431 -16z m836 -711 l2 -673 -405 0 -405 0 0 675 0 675 403 -2 402 -3
3 -672z"/>
<path d="M415 3478 c-54 -42 -55 -54 -55 -473 0 -419 1 -431 55 -473 l28 -22
889 0 c976 0 931 -3 963 60 8 16 15 47 15 70 l0 40 54 0 c30 0 56 4 58 10 2 5
1 39 0 75 l-4 65 -54 0 -54 0 0 173 0 172 52 0 53 0 5 63 c3 34 4 67 2 72 -2
6 -28 10 -58 10 l-54 0 0 45 c0 26 -7 59 -15 75 -32 63 13 60 -963 60 l-889 0
-28 -22z m1821 -42 c15 -11 20 -30 24 -88 l5 -73 58 -3 c53 -3 57 -5 57 -27 0
-22 -4 -24 -57 -27 l-58 -3 0 -215 0 -215 58 -3 c53 -3 57 -5 57 -27 0 -22 -4
-24 -57 -27 l-58 -3 -5 -67 c-8 -114 90 -103 -916 -106 l-875 -2 -30 29 -29
29 0 395 c0 384 1 395 21 421 l20 26 883 0 c746 0 885 -2 902 -14z"/>
<path d="M505 3403 c-44 -10 -45 -18 -45 -404 l0 -368 22 -15 c19 -14 75 -16
410 -16 375 0 389 1 408 20 19 19 20 33 20 383 0 298 -3 367 -14 383 -14 18
-31 19 -398 20 -211 1 -392 0 -403 -3z m765 -398 l0 -355 -380 0 -380 0 0 355
0 355 380 0 380 0 0 -355z"/>
<path d="M1407 3396 l-22 -12 -3 -374 c-2 -372 -2 -375 19 -392 19 -16 54 -18
398 -18 310 0 381 3 397 14 18 14 19 31 22 379 3 340 2 365 -16 387 l-18 22
-377 2 c-261 2 -384 -1 -400 -8z m761 -393 l2 -353 -370 0 -369 0 -3 351 c-2
193 -1 353 1 355 3 2 169 3 370 2 l366 -3 3 -352z"/>
<path d="M3706 3479 c-36 -28 -56 -70 -56 -118 l0 -40 -52 -3 -53 -3 0 -70 0
-70 50 -1 c28 -1 51 -4 53 -8 1 -3 2 -81 2 -173 l0 -168 -52 0 -53 0 0 -70 0
-70 53 -3 52 -3 0 -35 c0 -43 21 -86 56 -113 27 -21 29 -21 916 -21 976 0 931
-3 963 60 13 24 15 92 15 435 0 446 0 443 -60 479 -25 14 -112 16 -918 16
-887 0 -889 0 -916 -21z m1824 -49 c19 -19 20 -33 20 -424 0 -383 -1 -405 -19
-427 l-19 -24 -869 -3 c-618 -2 -876 1 -895 9 -33 14 -40 29 -47 104 l-6 60
-57 3 c-54 3 -58 5 -58 27 0 22 4 24 58 27 l57 3 0 215 0 215 -57 3 c-54 3
-58 5 -58 27 0 22 4 24 58 27 l57 3 5 66 c3 47 11 73 24 88 l19 21 884 0 c870
0 883 0 903 -20z"/>
<path d="M3795 3402 c-45 -9 -45 -5 -45 -398 l0 -373 22 -15 c19 -14 74 -16
398 -16 324 0 379 2 398 16 l22 15 0 373 c0 335 -2 375 -17 387 -13 11 -88 14
-387 15 -204 0 -380 -2 -391 -4z m746 -397 l0 -350 -371 0 -370 0 0 345 c0
190 0 348 0 353 0 4 167 6 370 5 l371 -3 0 -350z"/>
<path d="M4676 3389 l-26 -20 0 -365 c0 -351 1 -365 20 -384 19 -19 33 -20
403 -20 330 0 386 2 405 16 l22 15 0 374 c0 373 0 374 -22 389 -19 13 -76 16
-399 16 -365 0 -378 -1 -403 -21z m782 -386 l3 -353 -381 0 -380 0 0 355 0
355 378 -2 377 -3 3 -352z"/>
<path d="M336 3482 c-3 -5 1 -9 9 -9 8 0 12 4 9 9 -3 4 -7 8 -9 8 -2 0 -6 -4
-9 -8z"/>
<path d="M5566 2488 c3 -5 10 -6 15 -3 13 9 11 12 -6 12 -8 0 -12 -4 -9 -9z"/>
<path d="M2746 2131 c-17 -26 -145 -408 -141 -418 3 -10 87 -13 380 -13 372 0
380 1 377 30 -2 18 -136 387 -145 398 -11 14 -462 18 -471 3z m495 -201 c33
-91 60 -168 62 -172 1 -5 -143 -9 -321 -10 -212 -2 -321 0 -318 7 2 6 29 84
61 175 l57 165 200 0 200 0 59 -165z"/>
<path d="M2811 2028 c-51 -139 -72 -210 -68 -223 6 -13 39 -15 241 -15 153 0
237 4 241 11 7 10 -60 213 -78 237 -7 9 -53 12 -168 12 -156 0 -160 0 -168
-22z m325 -91 c12 -34 25 -70 29 -79 7 -17 -6 -18 -180 -18 -146 0 -186 3
-183 13 3 6 15 42 27 80 l23 67 131 0 132 0 21 -63z"/>
<path d="M2900 1670 c0 -35 63 -150 82 -150 21 0 93 134 84 156 -4 10 -26 14
-86 14 -73 0 -80 -2 -80 -20z m97 -50 c-12 -31 -20 -29 -32 8 -5 19 -3 22 18
22 24 0 25 -2 14 -30z"/>
</g>
</svg>
